<svg class="icon" viewBox="0 0 1024 1024" version="1.1"
     xmlns="http://www.w3.org/2000/svg" width="200" height="200">
    <path d="M421.486845 807.587629h190.020619v121.402062c0 52.472082-42.543505 95.010309-95.010309 95.010309-52.477361 0-95.010309-42.538227-95.01031-95.010309v-121.402062z"
          fill="#C5AC95" ></path>
    <path d="M143.206928 606.028536c0 46.438928 37.645196 84.084124 84.084124 84.084124 46.433649 0 84.078845-37.645196 84.078845-84.084124 0-46.433649-37.645196-84.078845-84.084124-84.078845-46.433649 0-84.078845 37.645196-84.078845 84.084123z"
          fill="#C9AB90"></path>
    <path d="M213.773196 422.268041m-95.010309 0a95.010309 95.010309 0 1 0 190.020618 0 95.010309 95.010309 0 1 0-190.020618 0Z"
          fill="#4D4132"></path>
    <path d="M482.969072 205.85567h10.556701c151.588948 0 274.474227 122.885278 274.474227 274.474227v190.020618c0 151.588948-122.885278 274.474227-274.474227 274.474227h-10.556701c-151.588948 0-274.474227-122.885278-274.474227-274.474227V480.329897c0-151.588948 122.885278-274.474227 274.474227-274.474227z"
          fill="#EBD3BD"></path>
    <path d="M810.226804 438.103093m-95.010309 0a95.010309 95.010309 0 1 0 190.020618 0 95.010309 95.010309 0 1 0-190.020618 0Z"
          fill="#4D4132"></path>
    <path d="M245.443299 269.195876m-116.123711 0a116.123711 116.123711 0 1 0 232.247422 0 116.123711 116.123711 0 1 0-232.247422 0Z"
          fill="#4D4132"></path>
    <path d="M409.072165 163.628866m-163.628866 0a163.628866 163.628866 0 1 0 327.257732 0 163.628866 163.628866 0 1 0-327.257732 0Z"
          fill="#4D4132"></path>
    <path d="M424.907216 182.103093a163.628866 160.989691 0 1 0 327.257732 0 163.628866 160.989691 0 1 0-327.257732 0Z"
          fill="#4D4132"></path>
    <path d="M746.886598 269.195876m-126.680412 0a126.680412 126.680412 0 1 0 253.360824 0 126.680412 126.680412 0 1 0-253.360824 0Z"
          fill="#4D4132"></path>
    <path d="M324.618557 749.525773c0 58.30466 47.262351 105.56701 105.56701 105.567011s105.56701-47.262351 105.56701-105.567011H324.618557z"
          fill="#E89E80"></path>
    <path d="M703.741361 600.750186c0 46.438928 37.645196 84.084124 84.078845 84.084123s84.084124-37.645196 84.084124-84.084123c0-46.433649-37.650474-84.078845-84.084124-84.078846s-84.084124 37.645196-84.084124 84.084124z"
          fill="#EBD3BD"></path>
    <path d="M750.449485 596.685856a37.370722 37.370722 0 1 0 74.741443 0.015835 37.370722 37.370722 0 0 0-74.741443-0.015835z"
          fill="#E89E80"></path>
    <path d="M227.285773 510.970722a74.741443 74.741443 0 1 0 149.477608 0c0-41.276701-33.464742-74.736165-74.741443-74.736165s-74.736165 33.464742-74.736165 74.741443z"
          fill="#FFFFFF"></path>
    <path d="M259.378144 510.363711a32.699381 32.699381 0 1 0 65.398763 0 32.699381 32.699381 0 0 0-65.398763 0z"
          fill="#514141"></path>
    <path d="M488.870268 510.970722c0 41.276701 33.464742 74.741443 74.741443 74.741443s74.730887-33.464742 74.730887-74.741443-33.459464-74.736165-74.736165-74.736165-74.741443 33.464742-74.741443 74.741443z"
          fill="#FFFFFF"></path>
    <path d="M520.962639 510.363711a32.699381 32.699381 0 1 0 65.393485 0 32.699381 32.699381 0 0 0-65.398763 0z"
          fill="#514141"></path>
    <path d="M238.117828 362.657353m23.919051 11.153637l105.243824 49.076001q23.919051 11.153637 12.765414 35.072687l0 0q-11.153637 23.919051-35.072687 12.765415l-105.243824-49.076001q-23.919051-11.153637-12.765414-35.072688l0 0q11.153637-23.919051 35.072687-12.765414Z"
          fill="#4D4132"></path>
    <path d="M447.704954 423.087051m25.369381-7.274553l131.920781-37.827675q25.369381-7.274553 32.643933 18.094828l0 0q7.274553 25.369381-18.094828 32.643934l-131.92078 37.827675q-25.369381 7.274553-32.643934-18.094828l0 0q-7.274553-25.369381 18.094828-32.643934Z"
          fill="#4D4132"></path>
</svg>
