<?xml version="1.0" encoding="UTF-8"?>
<svg width="512px" height="512px" viewBox="0 0 512 512" version="1.1" xmlns="http://www.w3.org/2000/svg" xmlns:xlink="http://www.w3.org/1999/xlink">
    <title>key-solid</title>
    <g id="页面-1" stroke="none" stroke-width="1" fill="none" fill-rule="evenodd">
        <g id="key-solid" fill="#FFFFFF" fill-rule="nonzero">
            <path d="M282.3,343.7 L248.1,376.1 C244.5,381.5 238.4,384 232,384 L192,384 L192,424 C192,437.3 181.3,448 168,448 L128,448 L128,488 C128,501.3 117.3,512 104,512 L24,512 C10.75,512 0,501.3 0,488 L0,408 C0,401.6 2.529,395.5 7.029,391 L168.3,229.7 C162.9,212.8 160,194.7 160,176 C160,78.8 238.8,0 336,0 C433.2,0 512,78.8 512,176 C512,273.2 433.2,352 336,352 C317.3,352 299.2,349.1 282.3,343.7 Z M376,176 C398.1,176 416,158.1 416,136 C416,113.9 398.1,96 376,96 C353.9,96 336,113.9 336,136 C336,158.1 353.9,176 376,176 Z" id="形状"></path>
        </g>
    </g>
</svg>