<?xml version="1.0" encoding="UTF-8"?>
<svg width="192px" height="192px" viewBox="0 0 192 192" version="1.1" xmlns="http://www.w3.org/2000/svg" xmlns:xlink="http://www.w3.org/1999/xlink">
    <title>logo</title>
    <defs>
        <linearGradient x1="100%" y1="50%" x2="0%" y2="50%" id="linearGradient-1">
            <stop stop-color="#93EEFE" offset="0%"></stop>
            <stop stop-color="#A1FCC6" offset="100%"></stop>
        </linearGradient>
        <linearGradient x1="100%" y1="50%" x2="0%" y2="50%" id="linearGradient-2">
            <stop stop-color="#93EEFE" offset="0%"></stop>
            <stop stop-color="#A1FCC6" offset="100%"></stop>
        </linearGradient>
    </defs>
    <g id="页面-1" stroke="none" stroke-width="1" fill="none" fill-rule="evenodd">
        <g id="logo" fill-rule="nonzero">
            <polygon id="路径" transform="translate(96.000000, 96.000000) scale(-1, 1) rotate(-180.000000) translate(-96.000000, -96.000000) " points="1.26318709e-14 96 1.26318709e-14 1.26318709e-14 96 1.26318709e-14 192 1.26318709e-14 192 96 192 192 96 192 1.26318709e-14 192"></polygon>
            <path d="M102.610333,69.7100883 C108.654778,51.3989772 91.0547775,33.0878661 72.7436664,38.5989772 C68.1214442,40.0211994 61.3658886,45.3545327 51.7658886,54.9545327 L37.7214442,69.176755 L41.6325553,73.0878661 L45.5436664,76.9989772 L59.4103331,63.3100883 C70.7881109,51.9323105 74.1658886,49.6211994 78.9658886,49.6211994 C91.7658886,49.6211994 96.2103331,64.1989772 86.4325553,73.6211994 L81.099222,78.776755 L85.0103331,82.8656439 L88.9214442,86.9545327 L94.7881109,81.2656439 C97.9881109,78.2434216 101.543666,72.9100883 102.610333,69.7100883 Z" id="路径" fill="url(#linearGradient-1)" transform="translate(70.771833, 62.278397) scale(-1, 1) rotate(-360.000000) translate(-70.771833, -62.278397) "></path>
            <path d="M87.8222222,107.363684 L77.5111111,96.8888889 L82.6666667,91.5555556 L87.8222222,86.2222222 L83.9111111,82.3111111 L80,78.2222222 L70.7555556,87.6444444 L61.3333333,96.8888889 L70.2222222,105.777778 C75.0222222,110.577778 79.4666667,114.666667 80.1777778,114.666667 C80.5333333,114.666667 83.0814815,112.232339 87.8222222,107.363684 Z" id="路径" fill-opacity="0.96" fill="#FFFFFF" transform="translate(74.577778, 96.444444) scale(-1, 1) rotate(-180.000000) translate(-74.577778, -96.444444) "></path>
            <path d="M130.311111,107.363684 L120,96.8888889 L125.155556,91.5555556 L130.311111,86.2222222 L126.4,82.3111111 L122.488889,78.2222222 L113.244444,87.6444444 L103.822222,96.8888889 L112.711111,105.777778 C117.511111,110.577778 121.955556,114.666667 122.666667,114.666667 C123.022222,114.666667 125.57037,112.232339 130.311111,107.363684 Z" id="路径" fill-opacity="0.96" fill="#FFFFFF" transform="translate(117.066667, 96.444444) rotate(-180.000000) translate(-117.066667, -96.444444) "></path>
            <path d="M55.1111111,140.552678 C48.8888889,133.441567 48.1777778,125.619345 53.3333333,120.463789 C58.8444444,114.952678 67.5555556,115.841567 73.7777778,122.241567 L78.9333333,127.5749 L83.0222222,123.663789 L87.1111111,119.752678 L81.4222222,113.886011 C70.4,102.508234 56,101.797123 45.5111111,112.463789 C34.8444444,122.952678 35.3777778,136.641567 46.7555556,148.3749 L52.2666667,154.241567 L56.3555556,150.330456 L60.2666667,146.597123 L55.1111111,140.552678 Z" id="路径" fill="url(#linearGradient-2)" transform="translate(62.482170, 129.565228) scale(-1, 1) rotate(-180.000000) translate(-62.482170, -129.565228) "></path>
            <path d="M122.146771,73.2656439 C115.924549,66.1545327 115.213438,58.3323105 120.368994,53.176755 C125.880105,47.6656439 134.591216,48.5545327 140.813438,54.9545327 L145.968994,60.2878661 L150.057882,56.376755 L154.146771,52.4656439 L148.457882,46.5989772 C137.43566,35.2211994 123.03566,34.5100883 112.546771,45.176755 C101.880105,55.6656439 102.413438,69.3545327 113.791216,81.0878661 L119.302327,86.9545327 L123.391216,83.0434216 L127.302327,79.3100883 L122.146771,73.2656439 Z" id="路径" fill="url(#linearGradient-2)" transform="translate(129.517830, 62.278194) scale(-1, 1) rotate(-360.000000) translate(-129.517830, -62.278194) "></path>
            <path d="M153.066667,136.996715 C159.111111,118.685604 141.511111,100.374493 123.2,105.885604 C118.577778,107.307826 111.822222,112.64116 102.222222,122.24116 L88.1777778,136.463382 L92.0888889,140.374493 L96,144.285604 L109.866667,130.596715 C121.244444,119.218938 124.622222,116.907826 129.422222,116.907826 C142.222222,116.907826 146.666667,131.485604 136.888889,140.907826 L131.555556,146.063382 L135.466667,150.152271 L139.377778,154.24116 L145.244444,148.552271 C148.444444,145.530049 152,140.196715 153.066667,136.996715 Z" id="路径" fill="url(#linearGradient-1)" transform="translate(121.228167, 129.565024) scale(-1, 1) rotate(-180.000000) translate(-121.228167, -129.565024) "></path>
        </g>
    </g>
</svg>